<?xml version="1.0" standalone="no"?>
<!DOCTYPE svg PUBLIC "-//W3C//DTD SVG 20010904//EN"
 "http://www.w3.org/TR/2001/REC-SVG-20010904/DTD/svg10.dtd">
<svg version="1.0" xmlns="http://www.w3.org/2000/svg"
 width="512.000000pt" height="512.000000pt" viewBox="0 0 512.000000 512.000000"
 preserveAspectRatio="xMidYMid meet">
<metadata>
Created by potrace 1.14, written by Peter Selinger 2001-2017
</metadata>
<g transform="translate(0.000000,512.000000) scale(0.100000,-0.100000)"
fill="#000000" stroke="none">
<path d="M1778 5105 c-2 -2 -21 -6 -43 -8 -48 -7 -86 -17 -101 -28 -6 -5 -13
-7 -16 -4 -3 3 -13 -4 -23 -15 -10 -11 -22 -20 -27 -20 -8 0 -34 -25 -68 -67
-25 -30 -62 -114 -64 -143 -1 -8 -4 -19 -7 -25 -4 -5 -6 -637 -5 -1403 l1
-1393 -25 -7 c-14 -3 -27 -7 -30 -7 -36 -8 -98 -29 -108 -37 -6 -6 -12 -7 -12
-3 0 4 -7 2 -15 -5 -8 -7 -15 -10 -15 -6 0 4 -14 -1 -30 -9 -17 -9 -35 -13
-40 -10 -6 3 -10 1 -10 -4 0 -6 -9 -11 -20 -11 -11 0 -20 -5 -20 -10 0 -6 -3
-9 -7 -8 -9 1 -26 -5 -118 -45 -38 -17 -77 -37 -86 -44 -8 -7 -19 -13 -24 -13
-9 0 -204 -118 -221 -134 -6 -6 -22 -18 -34 -26 -41 -28 -95 -74 -159 -137
-35 -35 -68 -63 -73 -63 -4 0 -8 -6 -8 -14 0 -8 -4 -16 -8 -18 -4 -2 -29 -30
-55 -63 -26 -33 -52 -65 -57 -72 -6 -7 -10 -17 -10 -23 0 -5 -4 -10 -10 -10
-5 0 -10 -7 -10 -15 0 -8 -4 -15 -9 -15 -8 0 -24 -37 -22 -52 1 -5 -3 -8 -7
-8 -11 0 -36 -51 -33 -68 1 -6 -2 -12 -7 -12 -7 0 -53 -104 -58 -130 0 -3 -6
-25 -13 -50 -28 -96 -36 -160 -36 -285 0 -60 4 -126 8 -145 10 -41 67 -164 79
-168 4 -2 8 -10 8 -18 0 -7 9 -19 20 -26 11 -7 20 -17 20 -21 0 -11 53 -63
105 -104 49 -37 135 -78 196 -92 62 -15 4112 -15 4175 -1 54 12 174 68 174 81
0 5 6 9 14 9 8 0 24 12 35 26 12 15 21 23 21 18 0 -4 10 6 22 22 13 17 30 38
38 47 31 34 40 46 40 57 0 5 4 10 8 10 7 0 16 18 52 113 53 138 34 370 -47
567 -3 8 -5 18 -5 23 1 4 -3 7 -8 7 -5 0 -9 3 -8 8 2 9 -34 85 -67 137 -14 22
-29 50 -35 63 -5 12 -14 22 -20 22 -5 0 -10 5 -10 11 0 27 -246 299 -270 299
-5 0 -10 3 -12 8 -6 13 -105 92 -116 92 -6 0 -12 4 -14 8 -4 10 -111 82 -153
104 -16 8 -58 31 -92 51 -35 20 -63 34 -63 32 0 -3 -17 4 -38 15 -68 35 -152
69 -152 62 0 -4 -4 -1 -8 6 -8 11 -38 22 -69 24 -7 1 -13 5 -13 10 0 5 -4 7
-9 3 -5 -3 -12 -1 -16 5 -4 6 -11 7 -17 4 -6 -4 -13 -3 -17 2 -5 8 -63 27
-121 39 -8 2 -15 4 -15 5 0 2 -30 9 -55 14 -8 2 -22 6 -30 8 -27 10 -113 28
-205 43 -50 8 -102 17 -115 20 -14 3 -47 7 -75 10 -27 3 -66 7 -85 10 -44 6
-156 15 -235 21 -74 4 -545 5 -600 0 -22 -2 -80 -7 -130 -10 -49 -4 -101 -9
-115 -11 -14 -2 -50 -7 -80 -10 -70 -7 -103 -12 -165 -24 -27 -5 -52 -7 -54
-5 -3 2 -4 369 -5 815 0 684 3 812 14 819 8 5 19 5 25 1 21 -16 215 9 215 28
0 4 6 8 13 9 20 1 48 10 145 45 50 19 92 32 92 30 0 -3 6 -1 13 4 6 5 32 16
57 23 25 7 50 17 55 20 12 9 67 24 78 22 4 -1 7 3 7 8 0 5 3 9 8 8 4 0 14 1
22 5 8 3 58 20 110 38 52 18 101 36 108 42 6 5 12 7 12 4 0 -3 16 1 35 9 19 8
35 11 35 7 0 -5 4 -3 8 2 6 9 114 52 152 60 8 2 16 4 18 5 1 2 5 3 10 4 4 1
13 5 20 9 6 5 17 5 22 2 6 -3 10 -2 10 4 0 6 12 14 28 17 15 4 32 9 37 13 11
6 32 12 53 13 6 1 12 6 12 11 0 6 3 7 7 4 3 -4 12 -2 20 4 7 6 13 9 13 5 0 -4
14 0 30 9 17 9 30 13 30 9 0 -4 6 -2 13 3 6 6 37 18 67 29 30 10 67 26 82 36
14 10 29 18 33 18 3 0 22 12 41 28 38 29 68 77 59 92 -3 6 -2 10 4 10 14 0 -3
53 -30 89 -12 17 -28 31 -35 31 -6 0 -15 7 -18 16 -3 8 -10 13 -15 10 -4 -3
-19 3 -31 14 -13 11 -27 20 -33 20 -5 0 -23 6 -40 14 -18 8 -59 23 -92 34 -33
11 -112 39 -175 62 -63 22 -135 48 -160 56 -25 8 -54 19 -65 24 -24 10 -56 22
-70 26 -46 12 -252 88 -259 95 -6 5 -19 9 -31 9 -12 0 -25 4 -31 10 -5 5 -18
11 -29 13 -11 2 -28 7 -37 11 -9 4 -22 9 -30 10 -7 2 -20 5 -28 9 -28 10 -45
14 -51 13 -3 0 -12 4 -20 10 -14 11 -55 24 -73 23 -5 -1 -12 4 -15 10 -4 6
-16 12 -26 14 -11 2 -28 7 -37 11 -9 4 -23 9 -32 10 -8 1 -19 5 -22 9 -4 4
-16 7 -26 7 -10 0 -18 4 -18 8 0 5 -6 9 -12 10 -7 0 -38 7 -68 16 -57 15 -127
26 -132 21z"/>
</g>
</svg>
